<?xml version="1.0" encoding="utf-8"?>
<svg viewBox="0 0 40 40" style="enable-background:new 0 0 40 40;" xmlns="http://www.w3.org/2000/svg">
  <defs>
    <style type="text/css">
	.st0{fill:none;stroke:currentcolor;stroke-width:2;stroke-linecap:round;stroke-linejoin:round;stroke-miterlimit:10;}
	.st1{fill:currentcolor;}
</style>
  </defs>
  <g>
    <g>
      <path class="st0" d="M15,21.4l-12.6,6C1.5,27.7,1,28.6,1,29.6v0C1,30.9,2.1,32,3.4,32h33.1c1.4,0,2.4-1.1,2.4-2.4v0 c0-0.9-0.5-1.8-1.4-2.2l-17.1-8.1c-0.3-0.1-0.5-0.4-0.5-0.7v-1.7c0-0.4,0.3-0.7,0.7-0.8c2.2-0.4,3.8-2.5,3.2-4.9 c-0.3-1.4-1.5-2.6-2.9-2.9C18.3,7.5,16,9.5,16,12"/>
    </g>
  </g>
</svg>