<?xml version="1.0" encoding="utf-8"?>
<svg viewBox="0 0 40 40" style="enable-background:new 0 0 40 40;" xmlns="http://www.w3.org/2000/svg">
  <defs>
    <style type="text/css">
	.st0{fill:none;stroke:currentcolor;stroke-width:2;stroke-linecap:round;stroke-linejoin:round;stroke-miterlimit:10;}
	.st1{fill:currentcolor;}
</style>
  </defs>
  <g>
    <g>
      <path class="st0" d="M29.9,4.1c-1.7-0.3-3.4,0-4.8,0.6c-2.9,1.3-5.9,2.2-9,2.5L9,8v9.1l7.3,0.8c3.1,0.3,6,1.3,8.8,2.5 c1,0.4,2.1,0.7,3.3,0.7c5,0,9.1-4.4,8.5-9.5C36.5,7.8,33.6,4.7,29.9,4.1z"/>
      <polyline class="st0" points="9,8 4,6 4,19.1 9,17.1 &#9;&#9;&#9;"/>
      <path class="st0" d="M30.6,21l-2.2,11.5c-0.2,1.1-1.2,1.8-2.3,1.6h0c-2.7-0.5-4.5-3.2-4-5.9l1.5-7.8"/>
      <path class="st0" d="M26.6,21l-1.2,6.1c-0.2,1.1-1.2,1.8-2.3,1.6l0,0c-0.3-0.1-0.6-0.1-0.9-0.3"/>
      <path class="st0" d="M25.4,33.9c-0.1,0.4-0.2,0.9-0.3,1.3c-0.4,1.9,1.3,3.8,3.3,3.8h0c2,0,3.5-1.3,3.5-3v-1c0-1.7,1.4-3,4-3h0"/>
      <line class="st0" x1="26" y1="12" x2="30" y2="12"/>
    </g>
  </g>
</svg>