<?xml version="1.0" encoding="utf-8"?>
<svg viewBox="0 0 40 40" style="enable-background:new 0 0 40 40;" xmlns="http://www.w3.org/2000/svg">
  <defs>
    <style type="text/css">
	.st0{fill:none;stroke:currentcolor;stroke-width:2;stroke-linecap:round;stroke-linejoin:round;stroke-miterlimit:10;}
	.st1{fill:currentcolor;}
</style>
  </defs>
  <g>
    <g>
      <path class="st0" d="M1,32h30.5c0.8,0,1.5-0.7,1.5-1.5V29H1c0,0,8.9-18,19.3-18h11.3c0.9,0,1.7,0.5,2,1.4L38,24.8 c0,0.5-0.7,0.7-2.3,1.9C33.3,28.5,33,29,33,29"/>
      <path class="st0" d="M29,16c-0.2-0.5-0.7-1-1-1h-7c-3.9,0-6.8,4.8-8,7h17L29,16z"/>
      <path class="st0" d="M26,21v-1c0-1.1-1.2-1-3-1s-3-0.1-3,1v1"/>
      <path class="st0" d="M39,6L39,6c-1.6,0-2.7,0.4-3.9,1.5C33.7,8.8,33,11,33,11"/>
      <line class="st0" x1="20" y1="25" x2="26" y2="25"/>
      <path class="st0" d="M8,18.2V14c0-1.1,0.9-2,2-2c0.9,0,1.7,0.6,1.9,1.5L12,14"/>
    </g>
  </g>
</svg>