<?xml version="1.0" encoding="utf-8"?>
<svg viewBox="0 0 40 40" style="enable-background:new 0 0 40 40;" xmlns="http://www.w3.org/2000/svg">
  <defs>
    <style type="text/css">
	.st0{fill:none;stroke:currentcolor;stroke-width:2;stroke-linecap:round;stroke-linejoin:round;stroke-miterlimit:10;}
	.st1{fill:currentcolor;}
</style>
  </defs>
  <g>
    <g>
      <path class="st0" d="M29,17V3.5C29,2.7,28.3,2,27.5,2h-19C7.7,2,7,2.7,7,3.5V17"/>
      <line class="st0" x1="7" y1="7" x2="29" y2="7"/>
      <path class="st0" d="M3,17c0,1.7,1.4,3,3.1,3h23.7c1.7,0,3.1-1.3,3.1-3H3z"/>
      <polygon class="st0" points="1,20 1,24 3,24 3,39 6,39 6,24 25,24 25,39 37,39 37,24 39,24 39,20 &#9;&#9;&#9;"/>
      <line class="st0" x1="25" y1="24" x2="37" y2="24"/>
      <line class="st0" x1="25" y1="29" x2="37" y2="29"/>
      <line class="st0" x1="25" y1="34" x2="37" y2="34"/>
      <line class="st0" x1="30" y1="25" x2="32" y2="25"/>
      <line class="st0" x1="30" y1="35" x2="32" y2="35"/>
      <line class="st0" x1="30" y1="30" x2="32" y2="30"/>
      <line class="st0" x1="10" y1="4" x2="11" y2="4"/>
      <line class="st0" x1="14" y1="4" x2="15" y2="4"/>
      <line class="st0" x1="18" y1="4" x2="19" y2="4"/>
    </g>
  </g>
</svg>