<?xml version="1.0" encoding="utf-8"?>
<svg viewBox="0 0 40 40" style="enable-background:new 0 0 40 40;" xmlns="http://www.w3.org/2000/svg">
  <defs>
    <style type="text/css">
	.st0{fill:none;stroke:#182A40;stroke-width:2;stroke-linecap:round;stroke-linejoin:round;stroke-miterlimit:10;}
	.st1{fill:#182A40;}
</style>
  </defs>
  <g>
    <path class="st0" d="M1,24h38v-1.5c0-0.8-0.7-1.5-1.5-1.5h-35C1.7,21,1,21.7,1,22.5V24z"/>
    <path class="st0" d="M37.2,24c0,0-0.7,4.6-1,5.8c-0.7,3.6-3.9,6.2-7.5,6.2c-4.4,0-13.1,0-17.4,0c-3.7,0-6.8-2.6-7.5-6.2 c-0.2-1.2-1-5.8-1-5.8"/>
    <path class="st0" d="M31.8,35.8l0.2,1c0.2,1-0.5,2-1.6,2.2s-2-0.5-2.2-1.6l-0.2-1"/>
    <path class="st0" d="M8.2,35.8l-0.2,1c-0.2,1,0.5,2,1.6,2.2s2-0.5,2.2-1.6l0.2-1"/>
    <path class="st0" d="M36,21V6.5C36,4,34,2,31.5,2h0C29,2,27,4,27,6.5"/>
    <path class="st0" d="M22,10c0.2-1.7,1.7-3,3.6-3h2.7c1.9,0,3.5,1.3,3.6,3H22z"/>
    <line class="st0" x1="31" y1="17" x2="31" y2="18"/>
    <line class="st0" x1="27" y1="17" x2="27" y2="18"/>
    <line class="st0" x1="23" y1="17" x2="23" y2="18"/>
    <line class="st0" x1="31" y1="13" x2="31" y2="14"/>
    <line class="st0" x1="27" y1="13" x2="27" y2="14"/>
    <line class="st0" x1="23" y1="13" x2="23" y2="14"/>
  </g>
</svg>