<?xml version="1.0" encoding="utf-8"?>
<svg viewBox="0 0 40 40" style="enable-background:new 0 0 40 40;" xmlns="http://www.w3.org/2000/svg">
  <defs>
    <style type="text/css">
	.st0{fill:none;stroke:currentcolor;stroke-width:2;stroke-linecap:round;stroke-linejoin:round;stroke-miterlimit:10;}
	.st1{fill:currentcolor;}
</style>
  </defs>
  <g>
    <path class="st0" d="M36.5,29h-33C2.7,29,2,29.7,2,30.5v7C2,38.3,2.7,39,3.5,39h33c0.8,0,1.5-0.7,1.5-1.5v-7 C38,29.7,37.3,29,36.5,29z"/>
    <path class="st0" d="M20.5,32h13c0.8,0,1.5,0.7,1.5,1.5v1c0,0.8-0.7,1.5-1.5,1.5h-13c-0.8,0-1.5-0.7-1.5-1.5v-1 C19,32.7,19.7,32,20.5,32z"/>
    <circle class="st0" cx="7" cy="34" r="2"/>
    <circle class="st0" cx="14" cy="34" r="2"/>
    <line class="st0" x1="20" y1="29" x2="20" y2="16"/>
    <circle class="st0" cx="20" cy="13.9" r="2"/>
    <g>
      <path class="st0" d="M32.7,26.6C36,23.4,38,18.9,38,13.9c0-5-2-9.5-5.3-12.7"/>
      <path class="st0" d="M7.3,1.2C4,4.4,2,8.9,2,13.9c0,5,2,9.5,5.3,12.7"/>
    </g>
    <g>
      <path class="st0" d="M10.8,4.7C8.5,7,7,10.3,7,13.9c0,3.6,1.5,6.8,3.8,9.2"/>
      <path class="st0" d="M29.2,23.1c2.4-2.4,3.8-5.6,3.8-9.2c0-3.6-1.5-6.9-3.8-9.2"/>
    </g>
    <g>
      <path class="st0" d="M14.3,8.2c-1.5,1.4-2.3,3.5-2.3,5.7c0,2.2,0.9,4.2,2.3,5.7"/>
      <path class="st0" d="M25.6,19.5c1.5-1.4,2.3-3.5,2.3-5.7c0-2.2-0.9-4.2-2.4-5.7"/>
    </g>
  </g>
</svg>