<?xml version="1.0" encoding="utf-8"?>
<svg viewBox="0 0 40 40" style="enable-background:new 0 0 40 40;" xmlns="http://www.w3.org/2000/svg">
  <defs>
    <style type="text/css">
	.st0{fill:none;stroke:currentcolor;stroke-width:2;stroke-linecap:round;stroke-linejoin:round;stroke-miterlimit:10;}
	.st1{fill:currentcolor;}
</style>
  </defs>
  <g>
    <path class="st0" d="M29,21c-3.3,0-6-2.7-6-6c0-2.3,3.3-7.6,6-11.3c2.7,3.7,6,9,6,11.3C35,18.3,32.3,21,29,21z"/>
    <path class="st0" d="M32.5,14.8c0,1.8-1.6,3.2-3.5,3.2"/>
    <circle class="st0" cx="14" cy="29" r="4"/>
    <path class="st0" d="M18,20.9V6c0-2.2-1.8-4-4-4s-4,1.8-4,4v14.9c-3,1.5-5,4.5-5,8.1c0,5,4,9,9,9s9-4,9-9C23,25.5,21,22.4,18,20.9 z"/>
    <line class="st0" x1="14" y1="25" x2="14" y2="6"/>
    <line class="st0" x1="14" y1="9" x2="18" y2="9"/>
    <line class="st0" x1="14" y1="14" x2="18" y2="14"/>
    <line class="st0" x1="14" y1="19" x2="18" y2="19"/>
  </g>
</svg>