<?xml version="1.0" encoding="utf-8"?>
<svg viewBox="0 0 40 40" style="enable-background:new 0 0 40 40;" xmlns="http://www.w3.org/2000/svg">
  <defs>
    <style type="text/css">
	.st0{fill:none;stroke:currentcolor;stroke-width:2;stroke-linecap:round;stroke-linejoin:round;stroke-miterlimit:10;}
	.st1{fill:currentcolor;}
</style>
  </defs>
  <g>
    <path class="st0" d="M8.9,23.6c-1.1-0.1-3.1-0.1-3.9-0.1c-0.8,0-3,0.5-3,0.5s0.5-2.2,0.5-3c0-2-0.5-6-0.5-8s0.5-6,0.5-8 C2.5,4.3,2,2,2,2s2.3,0.5,3,0.5C7.8,2.5,13.3,2,16,2s8.3,0.5,11,0.5c0.7,0,3-0.5,3-0.5s-1,2.2-1,3c0,1,0.3,3.5,0.5,5"/>
    <path class="st0" d="M32,32H11.5C10.1,32,9,33.1,9,34.5v0c0,1.4,1.1,2.5,2.5,2.5h22c2.5,0,4.5-2,4.5-4.5v0c0-2.5-2-4.5-4.5-4.5H15 "/>
    <path class="st0" d="M19,32h-5.5C11,32,9,30,9,27.5v0C9,25,11,23,13.5,23h22c1.4,0,2.5,1.1,2.5,2.5v0c0,1.4-1.1,2.5-2.5,2.5h-3.9"/>
    <path class="st0" d="M9,27.5v-13C9,12,11,10,13.5,10h22c1.4,0,2.5,1.1,2.5,2.5v12.8"/>
  </g>
</svg>