<?xml version="1.0" encoding="utf-8"?>
<svg viewBox="0 0 40 40" style="enable-background:new 0 0 40 40;" xmlns="http://www.w3.org/2000/svg">
  <defs>
    <style type="text/css">
	.st0{fill:none;stroke:currentcolor;stroke-width:2;stroke-linecap:round;stroke-linejoin:round;stroke-miterlimit:10;}
	.st1{fill:currentcolor;}
</style>
  </defs>
  <g>
    <path class="st0" d="M36.5,6h-33C2.7,6,2,6.7,2,7.5v23C2,31.3,2.7,32,3.5,32h33c0.8,0,1.5-0.7,1.5-1.5v-23C38,6.7,37.3,6,36.5,6z"/>
    <rect x="6" y="10" class="st0" width="22" height="18"/>
    <line class="st0" x1="31" y1="11" x2="35" y2="11"/>
    <line class="st0" x1="31" y1="15" x2="35" y2="15"/>
    <circle class="st0" cx="33" cy="25" r="2"/>
    <path class="st0" d="M21.6,24h-9.1c-1.4,0-2.6-1-2.9-2.4L9,19h16l-0.5,2.6C24.2,23,23,24,21.6,24z"/>
    <line class="st0" x1="17" y1="16" x2="17" y2="13"/>
    <line class="st0" x1="13" y1="16" x2="13" y2="14"/>
    <line class="st0" x1="21" y1="16" x2="21" y2="14"/>
    <path class="st0" d="M4,32v1c0,1.1,0.9,2,2,2s2-0.9,2-2v-1"/>
    <path class="st0" d="M32,32v1c0,1.1,0.9,2,2,2s2-0.9,2-2v-1"/>
  </g>
</svg>