<?xml version="1.0" encoding="utf-8"?>
<svg viewBox="0 0 40 40" style="enable-background:new 0 0 40 40;" xmlns="http://www.w3.org/2000/svg">
  <defs>
    <style type="text/css">
	.st0{fill:none;stroke:currentcolor;stroke-width:2;stroke-linecap:round;stroke-linejoin:round;stroke-miterlimit:10;}
	.st1{fill:currentcolor;}
</style>
  </defs>
  <g>
    <path class="st0" d="M29,7V2.5C29,1.7,28.3,1,27.5,1h-21C5.7,1,5,1.7,5,2.5v32C5,35.3,5.7,36,6.5,36h21c0.8,0,1.5-0.7,1.5-1.5V31"/>
    <path class="st0" d="M6,36v1c0,1.1,0.9,2,2,2s2-0.9,2-2v-1"/>
    <path class="st0" d="M24,36v1c0,1.1,0.9,2,2,2s2-0.9,2-2v-1"/>
    <line class="st0" x1="5" y1="13" x2="18" y2="13"/>
    <line class="st0" x1="9" y1="6" x2="9" y2="10"/>
    <line class="st0" x1="9" y1="16" x2="9" y2="20"/>
    <g>
      <line class="st0" x1="29" y1="12" x2="29" y2="16"/>
      <polyline class="st0" points="31,10 29,12 27,10 &#9;&#9;&#9;"/>
      <line class="st0" x1="29" y1="26" x2="29" y2="22"/>
      <polyline class="st0" points="27,28 29,26 31,28 &#9;&#9;&#9;"/>
      <line class="st0" x1="36" y1="19" x2="32" y2="19"/>
      <polyline class="st0" points="38,21 36,19 38,17 &#9;&#9;&#9;"/>
      <line class="st0" x1="22" y1="19" x2="26" y2="19"/>
      <polyline class="st0" points="20,17 22,19 20,21 &#9;&#9;&#9;"/>
      <line class="st0" x1="33.9" y1="14.1" x2="31.1" y2="16.9"/>
      <polyline class="st0" points="36.8,14.1 33.9,14.1 33.9,11.2 &#9;&#9;&#9;"/>
      <line class="st0" x1="24.1" y1="23.9" x2="26.9" y2="21.1"/>
      <polyline class="st0" points="21.2,23.9 24.1,23.9 24.1,26.8 &#9;&#9;&#9;"/>
      <line class="st0" x1="33.9" y1="23.9" x2="31.1" y2="21.1"/>
      <polyline class="st0" points="33.9,26.8 33.9,23.9 36.8,23.9 &#9;&#9;&#9;"/>
      <line class="st0" x1="24.1" y1="14.1" x2="26.9" y2="16.9"/>
      <polyline class="st0" points="24.1,11.2 24.1,14.1 21.2,14.1 &#9;&#9;&#9;"/>
      <circle class="st0" cx="29" cy="19" r="3"/>
    </g>
  </g>
</svg>