<?xml version="1.0" encoding="utf-8"?>
<svg viewBox="0 0 40 40" style="enable-background:new 0 0 40 40;" xmlns="http://www.w3.org/2000/svg">
  <defs>
    <style type="text/css">
	.st0{fill:none;stroke:currentcolor;stroke-width:2;stroke-linecap:round;stroke-linejoin:round;stroke-miterlimit:10;}
	.st1{fill:currentcolor;}
</style>
  </defs>
  <g>
    <g>
      <path class="st0" d="M1,8v6.3C1,16,2.3,17,4,17s3-1,3-2.7V8"/>
      <path class="st0" d="M3,17L2,30c0,0.6,0,2,1.4,2h1.3C6,32,6,30.6,6,30L5,17"/>
      <path class="st0" d="M35.6,21.9L35,30c0,0.6,0,2,1.4,2h1.3c1.4,0,1.4-1.4,1.4-2c0,0-1-9.7-1-13c0-3.7,0-10,0-10 s-3.3,0.6-3.3,11.2c0,2.9,0.7,3.8,2.5,3.8h1.1"/>
      <line class="st0" x1="4" y1="12.6" x2="4" y2="8"/>
      <circle class="st0" cx="20.5" cy="19.5" r="11.5"/>
      <g>
        <path class="st0" d="M25,12.3c-1.3-0.8-2.8-1.3-4.5-1.3c-4.7,0-8.5,3.8-8.5,8.5c0,1.7,0.5,3.2,1.3,4.5"/>
        <path class="st0" d="M16,26.7c1.3,0.8,2.8,1.3,4.5,1.3c4.7,0,8.5-3.8,8.5-8.5c0-1.7-0.5-3.2-1.3-4.5"/>
      </g>
    </g>
  </g>
</svg>