<?xml version="1.0" encoding="utf-8"?>
<svg viewBox="0 0 40 40" style="enable-background:new 0 0 40 40;" xmlns="http://www.w3.org/2000/svg">
  <defs>
    <style type="text/css">
	.st0{fill:none;stroke:currentcolor;stroke-width:2;stroke-linecap:round;stroke-linejoin:round;stroke-miterlimit:10;}
	.st1{fill:currentcolor;}
</style>
  </defs>
  <g>
    <path class="st0" d="M35.5,2h-30C4.7,2,4,2.7,4,3.5v33C4,37.3,4.7,38,5.5,38h30c0.8,0,1.5-0.7,1.5-1.5v-33C37,2.7,36.3,2,35.5,2z"/>
    <rect x="7" y="11" class="st0" width="27" height="21"/>
    <path class="st0" d="M22,25.1c0.6,0.6,1.4,0.9,2.3,0.9c1.8,0,2.8-1.5,3.3-3.3c1-3.4,1.6-5.8,1.6-5.8c0,0,0,0,0,0 c0.5,0,0.8-0.4,0.8-0.8c0-0.5-0.4-0.8-0.8-0.8c-0.1,0-0.2,0-0.3,0.1l-0.6-0.3c-0.1-0.4-0.4-0.6-0.8-0.6c-0.5,0-0.8,0.4-0.8,0.8 c0,0.2,0.1,0.5,0.3,0.6c0,0-0.5,1-0.7,1.2c-0.9,1.4-3.1,2.4-3.6,2.6c-1,0.6-1.7,1.6-1.7,2.9"/>
    <path class="st0" d="M25.2,18.1C24.8,18,24.4,18,24,18c-2,0-3.9,0.6-4.9,2.2c-0.7,1-2.6,2.2-4.5,3.1c-1.9,0.9-3.4,2.6-3.4,4.7 c0,0.2,0,0.8,0.1,1h18.2c0.6-1,0.6-3,0.6-5.4c0-1.5-0.5-2.8-1.4-3.7"/>
    <line class="st0" x1="9" y1="29" x2="32" y2="29"/>
    <line class="st0" x1="15" y1="18" x2="15" y2="15"/>
    <line class="st0" x1="11" y1="20" x2="11" y2="16"/>
    <path class="st0" d="M8.5,5h11C20.3,5,21,5.7,21,6.5v0C21,7.3,20.3,8,19.5,8h-11C7.7,8,7,7.3,7,6.5v0C7,5.7,7.7,5,8.5,5z"/>
    <circle class="st0" cx="32.5" cy="6.5" r="1.5"/>
    <circle class="st0" cx="26.5" cy="6.5" r="1.5"/>
  </g>
</svg>