<?xml version="1.0" encoding="utf-8"?>
<svg viewBox="0 0 40 40" style="enable-background:new 0 0 40 40;" xmlns="http://www.w3.org/2000/svg">
  <defs>
    <style type="text/css">
	.st0{fill:none;stroke:currentcolor;stroke-width:2;stroke-linecap:round;stroke-linejoin:round;stroke-miterlimit:10;}
	.st1{fill:currentcolor;}
</style>
  </defs>
  <g>
    <g>
      <path class="st0" d="M11,11.5C11,14,9,16,6.5,16S2,14,2,11.5C2,7,4,2,6.5,2S11,7,11,11.5z"/>
      <path class="st0" d="M5,15.8L4,36.4C4,37.3,4.7,38,5.6,38h1.9C8.3,38,9,37.3,9,36.4L8,15.8"/>
      <path class="st0" d="M18.6,24.9L18,36.4c0,0.8,0.7,1.6,1.6,1.6h1.9c0.8,0,1.6-0.7,1.6-1.6c0,0-0.9-15.5-1-20.6 C21.9,12.4,22,2,22,2s-3.4,0.5-4.1,4.9c-0.6,4.1-1.2,8.2-1.8,12.9c-0.5,4.1,1.4,5.1,4.2,5.1h1.9"/>
      <path class="st0" d="M29,2v9.5c0,2.5,2,4.5,4.5,4.5s4.5-2,4.5-4.5V2"/>
      <path class="st0" d="M32,15.8l-1,20.6c0,0.8,0.7,1.6,1.6,1.6h1.9c0.8,0,1.6-0.7,1.6-1.6l-1-20.6"/>
      <line class="st0" x1="32" y1="9" x2="32" y2="2"/>
      <line class="st0" x1="35" y1="9" x2="35" y2="2"/>
    </g>
  </g>
</svg>