<?xml version="1.0" encoding="utf-8"?>
<svg viewBox="0 0 40 40" style="enable-background:new 0 0 40 40;" xmlns="http://www.w3.org/2000/svg">
  <defs>
    <style type="text/css">
	.st0{fill:none;stroke:currentcolor;stroke-width:2;stroke-linecap:round;stroke-linejoin:round;stroke-miterlimit:10;}
	.st1{fill:currentcolor;}
</style>
  </defs>
  <g>
    <path class="st0" d="M37,26V3.5C37,2.7,36.3,2,35.5,2h-31C3.7,2,3,2.7,3,3.5V26"/>
    <path class="st0" d="M39,30l-1.7,7.7c-0.2,0.8-0.9,1.3-1.6,1.3H4.4c-0.8,0-1.5-0.5-1.6-1.3L1,30"/>
    <rect x="1" y="26" class="st0" width="38" height="5"/>
    <line class="st0" x1="3" y1="8" x2="37" y2="8"/>
    <circle class="st1" cx="32" cy="5" r="1"/>
    <circle class="st1" cx="27" cy="5" r="1"/>
    <line class="st0" x1="8" y1="5" x2="16" y2="5"/>
    <path class="st0" d="M9,23c0-2.2,1.8-4,4-4"/>
    <path class="st0" d="M23,23c0-2.2,1.8-4,4-4"/>
    <path class="st0" d="M33.3,26c0.4-0.9,0.7-1.9,0.7-3c0-3.9-3.1-7-7-7s-7,3.1-7,7c0,1.1,0.2,2.1,0.7,3H33.3z"/>
    <path class="st0" d="M19.3,26c0.4-0.9,0.7-1.9,0.7-3c0-3.9-3.1-7-7-7s-7,3.1-7,7c0,1.1,0.2,2.1,0.7,3H19.3z"/>
    <line class="st0" x1="20" y1="13" x2="20" y2="8"/>
    <line class="st0" x1="14" y1="12" x2="17" y2="8"/>
    <line class="st0" x1="26" y1="12" x2="23" y2="8"/>
  </g>
</svg>