<?xml version="1.0" encoding="utf-8"?>
<svg viewBox="0 0 40 40" style="enable-background:new 0 0 40 40;" xmlns="http://www.w3.org/2000/svg">
  <defs>
    <style type="text/css">
	.st0{fill:none;stroke:currentcolor;stroke-width:2;stroke-linecap:round;stroke-linejoin:round;stroke-miterlimit:10;}
	.st1{fill:currentcolor;}
</style>
  </defs>
  <g>
    <path class="st0" d="M32,9.8c0,1.7,1.3,3.2,3,3.2s3-1.4,3-3.2V9L20,2L2,9v0.8C2,11.6,3.3,13,5,13s3-1.4,3-3.2c0,1.7,1.3,3.2,3,3.2 s3-1.4,3-3.2c0,1.7,1.3,3.2,3,3.2s3-1.4,3-3.2c0,1.7,1.3,3.2,3,3.2s3-1.4,3-3.2c0,1.7,1.3,3.2,3,3.2S32,11.6,32,9.8z"/>
    <line class="st0" x1="20" y1="11" x2="20" y2="21"/>
    <line class="st0" x1="20" y1="24" x2="20" y2="35"/>
    <path class="st0" d="M29,24H11v-1.3c0-0.9,0.8-1.7,1.7-1.7h14.6c0.9,0,1.7,0.8,1.7,1.7V24z"/>
    <g>
      <path class="st0" d="M1,16c2.3,1.5,4,6.3,4,12v10"/>
      <path class="st0" d="M15,30H5v-1.3C5,27.8,5.8,27,6.7,27h6.6c0.9,0,1.7,0.8,1.7,1.7V30z"/>
      <line class="st0" x1="14" y1="30" x2="14" y2="38"/>
    </g>
    <g>
      <path class="st0" d="M39,16c-2.3,1.5-4,6.3-4,12v10"/>
      <path class="st0" d="M25,30h10v-1.3c0-0.9-0.8-1.7-1.7-1.7h-6.6c-0.9,0-1.7,0.8-1.7,1.7V30z"/>
      <line class="st0" x1="26" y1="30" x2="26" y2="38"/>
    </g>
    <path class="st0" d="M23.5,38c-1.9,0-3.5-1.6-3.5-3.5c0,1.9-1.6,3.5-3.5,3.5"/>
  </g>
</svg>