<?xml version="1.0" encoding="utf-8"?>
<svg viewBox="0 0 40 40" style="enable-background:new 0 0 40 40;" xmlns="http://www.w3.org/2000/svg">
  <defs>
    <style type="text/css">
	.st0{fill:none;stroke:currentcolor;stroke-width:2;stroke-linecap:round;stroke-linejoin:round;stroke-miterlimit:10;}
	.st1{fill:currentcolor;}
</style>
  </defs>
  <g>
    <path class="st0" d="M20,12c-0.6-0.6-1-1.5-1-2.5c0-1,0.4-1.9,1-2.5s1-1.5,1-2.5c0-1-0.4-1.9-1-2.5"/>
    <path class="st0" d="M9,12c-0.6-0.6-1-1.5-1-2.5c0-1,0.4-1.9,1-2.5s1-1.5,1-2.5c0-1-0.4-1.9-1-2.5"/>
    <path class="st0" d="M31,12c-0.6-0.6-1-1.5-1-2.5c0-1,0.4-1.9,1-2.5s1-1.5,1-2.5c0-1-0.4-1.9-1-2.5"/>
    <path class="st0" d="M36.5,15h-33C2.7,15,2,15.7,2,16.5v17C2,34.3,2.7,35,3.5,35h33c0.8,0,1.5-0.7,1.5-1.5v-17 C38,15.7,37.3,15,36.5,15z"/>
    <path class="st0" d="M5,35v1c0,1.1,0.9,2,2,2s2-0.9,2-2v-1"/>
    <path class="st0" d="M31,35v1c0,1.1,0.9,2,2,2c1.1,0,2-0.9,2-2v-1"/>
    <line class="st0" x1="6" y1="19" x2="6" y2="32"/>
    <line class="st0" x1="10" y1="19" x2="10" y2="32"/>
    <line class="st0" x1="14" y1="19" x2="14" y2="32"/>
    <line class="st0" x1="18" y1="19" x2="18" y2="32"/>
    <line class="st0" x1="22" y1="19" x2="22" y2="32"/>
    <line class="st0" x1="26" y1="19" x2="26" y2="32"/>
    <line class="st0" x1="30" y1="19" x2="30" y2="32"/>
    <line class="st0" x1="34" y1="19" x2="34" y2="32"/>
  </g>
</svg>