<?xml version="1.0" encoding="utf-8"?>
<svg viewBox="0 0 40 40" style="enable-background:new 0 0 40 40;" xmlns="http://www.w3.org/2000/svg">
  <defs>
    <style type="text/css">
	.st0{fill:none;stroke:currentcolor;stroke-width:2;stroke-linecap:round;stroke-linejoin:round;stroke-miterlimit:10;}
	.st1{fill:currentcolor;}
</style>
  </defs>
  <g>
    <circle class="st0" cx="7.5" cy="35.5" r="2.5"/>
    <circle class="st0" cx="32.5" cy="35.5" r="2.5"/>
    <line class="st0" x1="30" y1="36.1" x2="10" y2="36.1"/>
    <path class="st0" d="M5,36.1H2.5c-0.9,0-1.5-0.7-1.5-1.5c0-1.6,0-2.8,0.6-4.2c0.6-1.3,1.3-1.5,2.9-1.8c2.1-0.4,4.1-0.2,7.5-2.6 c4.7-3.3,5.3-4,8-4s9,0,9,0c2.4,0,4.4,5,7,5s3,0.8,3,2v5.5c0,0.9-0.7,1.5-1.5,1.5H35"/>
    <path class="st0" d="M32.1,29c-1.8-1-3.3-4-5.1-4c0,0-3.7,0-6.1,0s-2.9,0.6-7,3.4c-0.3,0.2-0.6,0.4-0.9,0.6H32.1z"/>
    <line class="st0" x1="25" y1="29" x2="25" y2="25"/>
    <g>
      <path class="st0" d="M15.6,19H3.4C2.1,19,1,17.9,1,16.6V3.4C1,2.1,2.1,1,3.4,1h12.3C16.9,1,18,2.1,18,3.4v13.3 C18,17.9,16.9,19,15.6,19z"/>
      <line class="st0" x1="9" y1="19" x2="9" y2="27.3"/>
      <line class="st0" x1="6" y1="5" x2="6" y2="15"/>
      <path class="st0" d="M6.4,5h3.3C11.5,5,13,6.6,13,8.5S11.5,12,9.7,12H6.4"/>
    </g>
  </g>
</svg>