<?xml version="1.0" encoding="utf-8"?>
<svg viewBox="0 0 40 40" style="enable-background:new 0 0 40 40;" xmlns="http://www.w3.org/2000/svg">
  <defs>
    <style type="text/css">
	.st0{fill:none;stroke:currentcolor;stroke-width:2;stroke-linecap:round;stroke-linejoin:round;stroke-miterlimit:10;}
	.st1{fill:currentcolor;}
</style>
  </defs>
  <g>
    <path class="st0" d="M34.5,2h-29C4.7,2,4,2.7,4,3.5v33C4,37.3,4.7,38,5.5,38h29c0.8,0,1.5-0.7,1.5-1.5v-33C36,2.7,35.3,2,34.5,2z"/>
    <circle class="st0" cx="20" cy="23" r="11"/>
    <path class="st0" d="M25,23c0-1.7,0.6-3.3,1.6-4.5C25.2,16.4,22.8,15,20,15c-4.4,0-8,3.6-8,8s3.6,8,8,8c2.8,0,5.2-1.4,6.6-3.5 C25.6,26.3,25,24.7,25,23z"/>
    <path class="st0" d="M12,23c1-1.7,2.4-2.8,4-2.8c1.6,0,3,1.1,4,2.8s2.4,2.8,4,2.8c0.5,0,0.9-0.1,1.4-0.3"/>
    <line class="st0" x1="18" y1="5" x2="23" y2="5"/>
    <line class="st0" x1="18" y1="8" x2="23" y2="8"/>
    <polyline class="st0" points="4,9 14,9 14,2 &#9;&#9;"/>
    <circle class="st0" cx="30" cy="7" r="2"/>
  </g>
</svg>