<?xml version="1.0" encoding="utf-8"?>
<svg viewBox="0 0 40 40" style="enable-background:new 0 0 40 40;" xmlns="http://www.w3.org/2000/svg">
  <defs>
    <style type="text/css">
	.st0{fill:none;stroke:currentcolor;stroke-width:2;stroke-linecap:round;stroke-linejoin:round;stroke-miterlimit:10;}
	.st1{fill:currentcolor;}
</style>
  </defs>
  <g>
    <path class="st0" d="M9,10H6.7c-1,0-1.8,0.7-1.9,1.7L2.2,35.9C2.1,37,3,38,4.1,38h31.8c1.1,0,2-1,1.9-2.1l-2.6-24.2 c-0.1-1-0.9-1.7-1.9-1.7H27"/>
    <path class="st0" d="M12,17V5.9C12,3.7,13.9,2,16,2h0c2.2,0,4,1.8,4,4"/>
    <path class="st0" d="M24,17V5.9C24,3.7,25.9,2,28,2h0c2.2,0,4,1.8,4,4"/>
    <line class="st0" x1="12" y1="15" x2="24" y2="15"/>
    <line class="st0" x1="12" y1="12" x2="24" y2="12"/>
    <line class="st0" x1="12" y1="9" x2="24" y2="9"/>
    <g>
      <path class="st0" d="M2.9,31h2.2c1.2,0,2.3,0.6,3,1.5c0.7,0.9,1.8,1.5,3,1.5c1.2,0,2.3-0.6,3-1.5c0.7-0.9,1.8-1.5,3-1.5 c1.2,0,2.3,0.6,3,1.5c0.7,0.9,1.8,1.5,3,1.5c1.2,0,2.3-0.6,3-1.5c0.7-0.9,1.8-1.5,3-1.5c1.2,0,2.3,0.6,3,1.5 c0.7,0.9,1.8,1.5,3,1.5h2.3"/>
    </g>
    <g>
      <path class="st0" d="M4.6,19h0.5c1.2,0,2.3,0.6,3,1.5c0.7,0.9,1.8,1.5,3,1.5c1.2,0,2.3-0.6,3-1.5c0.7-0.9,1.8-1.5,3-1.5 c1.2,0,2.3,0.6,3,1.5c0.7,0.9,1.8,1.5,3,1.5c1.2,0,2.3-0.6,3-1.5c0.7-0.9,1.8-1.5,3-1.5c1.2,0,2.3,0.6,3,1.5 c0.7,0.9,1.8,1.5,3,1.5h1.1"/>
    </g>
    <g>
      <path class="st0" d="M3.4,25h1.7c1.2,0,2.3,0.6,3,1.5c0.7,0.9,1.8,1.5,3,1.5c1.2,0,2.3-0.6,3-1.5c0.7-0.9,1.8-1.5,3-1.5 c1.2,0,2.3,0.6,3,1.5c0.7,0.9,1.8,1.5,3,1.5c1.2,0,2.3-0.6,3-1.5c0.7-0.9,1.8-1.5,3-1.5c1.2,0,2.3,0.6,3,1.5 c0.7,0.9,1.8,1.5,3,1.5h1.7"/>
    </g>
  </g>
</svg>