<?xml version="1.0" encoding="utf-8"?>
<svg viewBox="0 0 40 40" style="enable-background:new 0 0 40 40;" xmlns="http://www.w3.org/2000/svg">
  <defs>
    <style type="text/css">
	.st0{fill:none;stroke:currentcolor;stroke-width:2;stroke-linecap:round;stroke-linejoin:round;stroke-miterlimit:10;}
	.st1{fill:currentcolor;}
</style>
  </defs>
  <g>
    <g>
      <path class="st0" d="M20.4,35.9l-0.7,0.7c-0.7,0.7-1.8,0.7-2.5,0L3.4,22.9c-0.7-0.7-0.7-1.8,0-2.5l0.7-0.7c0.7-0.7,1.8-0.7,2.5,0 l13.7,13.8C21.1,34.1,21.1,35.2,20.4,35.9z"/>
      <path class="st0" d="M15.5,36L14,37.5c-0.7,0.7-1.8,0.7-2.5,0l-8.8-8.9c-0.7-0.7-0.7-1.8,0-2.5l1.5-1.5"/>
      <path class="st0" d="M35.9,20.4l0.7-0.7c0.7-0.7,0.7-1.8,0-2.5L22.9,3.3c-0.7-0.7-1.8-0.7-2.5,0l-0.7,0.7c-0.7,0.7-0.7,1.8,0,2.5 l13.7,13.8C34.1,21.1,35.2,21.1,35.9,20.4z"/>
      <path class="st0" d="M35.6,15.8l1.8-1.8c0.7-0.7,0.7-1.8,0-2.5l-8.8-8.9c-0.7-0.7-1.8-0.7-2.5,0l-1.8,1.8"/>
      <path class="st0" d="M8.7,34.7l-0.8,0.8c-0.9,0.9-2.3,0.9-3.2,0l0,0c-0.9-0.9-0.9-2.3,0-3.2l0.8-0.8"/>
      <line class="st0" x1="28.1" y1="15.1" x2="15.2" y2="28.1"/>
      <path class="st0" d="M31.4,5.3l0.8-0.8c0.9-0.9,2.3-0.9,3.2,0l0,0c0.9,0.9,0.9,2.3,0,3.2l-0.8,0.8"/>
      <line class="st0" x1="11.9" y1="24.9" x2="24.9" y2="11.9"/>
    </g>
  </g>
</svg>