<?xml version="1.0" encoding="utf-8"?>
<svg viewBox="0 0 40 40" style="enable-background:new 0 0 40 40;" xmlns="http://www.w3.org/2000/svg">
  <defs>
    <style type="text/css">
	.st0{fill:none;stroke:currentcolor;stroke-width:2;stroke-linecap:round;stroke-linejoin:round;stroke-miterlimit:10;}
	.st1{fill:currentcolor;}
</style>
  </defs>
  <g>
    <path class="st0" d="M33,13c0,7.2-5.8,13-13,13S7,20.2,7,13V9h26V13z"/>
    <line class="st0" x1="4" y1="12" x2="36" y2="12"/>
    <g>
      <path class="st0" d="M20,6.5c-0.6-0.3-1-0.8-1-1.4c0-0.5,0.4-1,1-1.4c0.6-0.3,1-0.8,1-1.4c0-0.5-0.4-1-1-1.4"/>
      <path class="st0" d="M13,6.5c-0.6-0.3-1-0.8-1-1.4c0-0.5,0.4-1,1-1.4c0.6-0.3,1-0.8,1-1.4c0-0.5-0.4-1-1-1.4"/>
      <path class="st0" d="M27,6.5c-0.6-0.3-1-0.8-1-1.4c0-0.5,0.4-1,1-1.4c0.6-0.3,1-0.8,1-1.4c0-0.5-0.4-1-1-1.4"/>
    </g>
    <polyline class="st0" points="15.2,25.3 11,38 8,38 12.7,23.8 &#9;&#9;"/>
    <line class="st0" x1="30" y1="31.9" x2="27.3" y2="23.8"/>
    <line class="st0" x1="24.7" y1="25.1" x2="27.5" y2="33.4"/>
    <circle class="st0" cx="30.5" cy="35.5" r="3.5"/>
  </g>
</svg>