<?xml version="1.0" encoding="utf-8"?>
<svg viewBox="0 0 40 40" style="enable-background:new 0 0 40 40;" xmlns="http://www.w3.org/2000/svg">
  <defs>
    <style type="text/css">
	.st0{fill:none;stroke:currentcolor;stroke-width:2;stroke-linecap:round;stroke-linejoin:round;stroke-miterlimit:10;}
	.st1{fill:currentcolor;}
</style>
  </defs>
  <g>
    <path class="st0" d="M33.4,10H6.6c-2,0-3.6,1.6-3.6,3.6v18.8c0,2,1.6,3.6,3.6,3.6h26.8c2,0,3.6-1.6,3.6-3.6V13.6 C37,11.6,35.4,10,33.4,10z"/>
    <circle class="st0" cx="20" cy="23" r="10"/>
    <polygon class="st0" points="25,21 22,21 22,18 18,18 18,21 15,21 15,25 18,25 18,28 22,28 22,25 25,25 &#9;&#9;"/>
    <path class="st0" d="M28,10h1V6.1C29,4.9,28.1,4,26.9,4H13.1C11.9,4,11,4.9,11,6.1V10"/>
    <polyline class="st0" points="14,10 14,7 26,7 26,10 &#9;&#9;"/>
    <path class="st0" d="M11,10v2c0,1.1-0.9,2-2,2h0c-1.1,0-2-0.9-2-2v-2"/>
    <path class="st0" d="M33,10v2c0,1.1-0.9,2-2,2h0c-1.1,0-2-0.9-2-2v-2"/>
  </g>
</svg>