<?xml version="1.0" encoding="utf-8"?>
<svg viewBox="0 0 40 40" style="enable-background:new 0 0 40 40;" xmlns="http://www.w3.org/2000/svg">
  <defs>
    <style type="text/css">
	.st0{fill:none;stroke:currentcolor;stroke-width:2;stroke-linecap:round;stroke-linejoin:round;stroke-miterlimit:10;}
	.st1{fill:currentcolor;}
</style>
  </defs>
  <g>
    <g>
      <path class="st0" d="M16,5V2.6C16,1.7,15.3,1,14.4,1H6.2L7,2.1C7.9,3.3,9.4,4,10.9,4H13v1.3"/>
      <path class="st0" d="M17.7,10h3.1c0.6,0,1.2-0.5,1.2-1.2V8.2C22,7.5,21.5,7,20.8,7h-3.1"/>
      <path class="st0" d="M11.1,7H9c-1.7,0-3,1.3-3,3v0h5.1"/>
      <path class="st0" d="M12,11c-2.4,1.2-5,1.9-5,5v21.5C7,38.3,7.7,39,8.5,39h12c0.8,0,1.5-0.7,1.5-1.5V16c0-3.1-2.6-3.8-5-5"/>
      <circle class="st0" cx="14.5" cy="8.5" r="3.5"/>
      <polyline class="st0" points="7,17 14,17 14,29 7,29 &#9;&#9;&#9;"/>
      <line class="st0" x1="7" y1="33" x2="22" y2="33"/>
      <path class="st0" d="M23,9h1.9c3.9,0,7.1,3.2,7.1,7.1V25"/>
      <path class="st0" d="M36,36c0,0-1,1-4,1s-4-1-4-1l2-11h4L36,36z"/>
    </g>
  </g>
</svg>