<svg style="vertical-align:text-bottom" width="20" height="20" viewBox="0 0 73 75" fill="none" xmlns="http://www.w3.org/2000/svg">
<path opacity="0.4" d="M0.160156 34.8858C0.160156 33.9251 0.608394 33.0185 1.37423 32.4301L29.9578 8.51945C31.0871 7.65188 32.6652 7.65188 33.7945 8.51945L62.3781 32.4301C63.144 33.0185 63.5922 33.9251 63.5922 34.8858V71.0272C63.5922 72.7428 62.1898 74.1336 60.4597 74.1336H3.2926C1.5626 74.1336 0.160156 72.7428 0.160156 71.0272V34.8858Z" fill="#16A9FC"/><path d="M9.15234 27.017C9.15234 26.0563 9.60058 25.1497 10.3664 24.5613L38.95 0.650676C40.0793 -0.216891 41.6574 -0.216893 42.7867 0.650675L71.3703 24.5613C72.1361 25.1497 72.5844 26.0563 72.5844 27.017V63.1584C72.5844 64.874 71.1819 66.2648 69.4519 66.2648H12.2848C10.5548 66.2648 9.15234 64.874 9.15234 63.1584V27.017Z" fill="#167FFC"/><path fill-rule="evenodd" clip-rule="evenodd" d="M58.8177 28.9951L35.2706 52.5424L22.3555 40.0488L27.294 34.9436L35.188 42.5799L53.7951 23.9725L58.8177 28.9951Z" fill="white"/></svg>