<?xml version="1.0" encoding="UTF-8"?>
<svg width="32" height="39" fill="none" version="1.1" viewBox="0 0 32 39" xmlns="http://www.w3.org/2000/svg"><path d="m.41469.35545h17.614l8.3434 8.8273v8.3369l-16.687 16.183h-9.2705z" fill="#88bfff" style="stroke-width:.83436"/><path d="m29.797 19.581-2.561 16.934-16.499-2.4953z" fill="#167ffc" style="stroke-width:1.1843"/><path d="m18.029 9.1828v-8.8273l8.3434 8.8273z" fill="#167ffc" style="stroke-width:.83436"/><path d="m11.855 15.068h-5.603c-1.1759 0-2.1292-1.0269-2.1292-2.2937 0-.84208.42129-1.5782 1.0492-1.9771-.026582-.12092-.040655-.24716-.040655-.37684 0-.90009.67731-1.6297 1.5128-1.6297.1222 0 .24102.015609.35484.045082.45423-.95826 1.3793-1.6144 2.4467-1.6144 1.3899 0 2.5385 1.1125 2.7204 2.5559 1.2147.16478 2.1542 1.2817 2.1542 2.6349 0 1.4667-1.1038 2.6557-2.4653 2.6557z" fill="#ffffff" style="stroke-width:.83436"/><path d="m23.129 20.665-13.444 13.039h-9.2705v-11.664c3.94-1.9558 8.3387-3.0486 12.979-3.0486 3.4038 0 6.6778.58813 9.7361 1.6736z" clip-rule="evenodd" fill="#167ffc" fill-rule="evenodd" style="stroke-width:.83436"/><path transform="matrix(.36239 .14862 -.13164 .76106 21.737 2.5952)" d="m28.614 23.697-6.1235-3.2182 5.8488-3.694.13734 3.4561z" style="fill:#88bfff"/></svg>
